{"title":"The L-Shaped Room (Bryan Forbes, 1962)","uid":8263779,"size":1666196306,"categoryP":"video","categoryS":"movies","magnet":"?xt=urn:btih:e2880bcc19c0f8cae2c4631643fa39cd75d5e56c&amp;dn=The+L-Shaped+Room+%28Bryan+Forbes%2C+1962%29&amp;tr=udp%3A%2F%2Ftracker.openbittorrent.com%3A80&amp;tr=udp%3A%2F%2Fopen.demonii.com%3A1337&amp;tr=udp%3A%2F%2Ftracker.coppersurfer.tk%3A6969&amp;tr=udp%3A%2F%2Fexodus.desync.com%3A6969","seeders":1,"leechers":1,"uploader":"mariopan","files":2,"time":1363446301,"description":"Jane, a young French woman, pregnant and unmarried, takes a room in a seedy London boarding house, which is inhabited by an assortment of misfits. She considers getting an abortion, but is unhappy with this solution. She falls into a relationship with Toby, a struggling young writer who lives on the first floor. Eventually she comes to like her odd room, and makes friends with all the strange people in the house. But she still faces two problems: what to do with her baby, and what to do with Toby. From IMDb.\n\n\nDirector:\nBryan Forbes\n\nWriters:\nLynne Reid Banks (novel), Bryan Forbes (written for the screen by)\n\nStars:\nLeslie Caron, Anthony Booth, Avis Bunnage\n\nFormat                                   : AVI\nFormat/Info                              : Audio Video Interleave\nFile size                                : 1.55 GiB\nDuration                                 : 2h 0mn\nOverall bit rate                         : 1 841 Kbps\nWriting application                      : VirtualDubMod 1.5.10.2 (build 2540/release)\nWriting library                          : VirtualDubMod build 2540/release\n\nVideo\nID                                       : 0\nFormat                                   : MPEG-4 Visual\nFormat profile                           : Advanced Simple@L5\nFormat settings, BVOP                    : 1\nFormat settings, QPel                    : No\nFormat settings, GMC                     : No warppoints\nFormat settings, Matrix                  : Default (MPEG)\nCodec ID                                 : XVID\nCodec ID/Hint                            : XviD\nDuration                                 : 2h 0mn\nBit rate                                 : 1 703 Kbps\nWidth                                    : 704 pixels\nHeight                                   : 384 pixels\nDisplay aspect ratio                     : 1.85:1\nFrame rate                               : 25.000 fps\nColor space                              : YUV\nChroma subsampling                       : 4:2:0\nBit depth                                : 8 bits\nScan type                                : Progressive\nCompression mode                         : Lossy\nBits/(Pixel*Frame)                       : 0.252\nStream size                              : 1.44 GiB (93%)\nWriting library                          : XviD 1.2.1 (UTC 2008-12-04)\n\nAudio\nID                                       : 1\nFormat                                   : MPEG Audio\nFormat version                           : Version 1\nFormat profile                           : Layer 3\nMode                                     : Joint stereo\nMode extension                           : MS Stereo\nCodec ID                                 : 55\nCodec ID/Hint                            : MP3\nDuration                                 : 2h 0mn\nBit rate mode                            : Constant\nBit rate                                 : 128 Kbps\nChannel(s)                               : 2 channels\nSampling rate                            : 48.0 KHz\nCompression mode                         : Lossy\nStream size                              : 110 MiB (7%)\nAlignment                                : Aligned on interleaves\nInterleave, duration                     : 40 ms (1.00 video frame)\nInterleave, preload duration             : 504 ms\n\nUpped by Aw in KG. Tks!","torrent":{"xt":"urn:btih:e2880bcc19c0f8cae2c4631643fa39cd75d5e56c","amp;dn":"The+L-Shaped+Room+%28Bryan+Forbes%2C+1962%29","amp;tr":["udp%3A%2F%2Ftracker.openbittorrent.com%3A80","udp%3A%2F%2Fopen.demonii.com%3A1337","udp%3A%2F%2Ftracker.coppersurfer.tk%3A6969","udp%3A%2F%2Fexodus.desync.com%3A6969"],"infoHash":"e2880bcc19c0f8cae2c4631643fa39cd75d5e56c","infoHashBuffer":{"type":"Buffer","data":[226,136,11,204,25,192,248,202,226,196,99,22,67,250,57,205,117,213,229,108]},"announce":[],"urlList":[]}}